<?xml version="1.0" encoding="UTF-8" standalone="no"?>
<!-- Created with Inkscape (http://www.inkscape.org/) -->
<svg xmlns:svg="http://www.w3.org/2000/svg" xmlns="http://www.w3.org/2000/svg" version="1.0" width="600.00006" height="192.55576" id="svg2">
  <defs id="defs4"/>
  <g transform="translate(70.312503,-601.81928)" id="g2561">
    <g transform="matrix(0.782747,0,0,0.782747,-15.275605,172.58039)" id="g5400" style="fill:#000000">
      <path d="M 538.6875,548.375 L 552.34375,562.03125 L 564.9375,574.625 L 598,682.59375 L 598,769.0625 L 586.34375,780.71875 L 572.6875,794.375 L 592,794.375 L 656,794.375 L 675.3125,794.375 L 661.65625,780.71875 L 650,769.0625 L 650,682.6875 L 692.5625,558.96875 L 696.21875,548.375 L 685,548.375 L 643,548.375 L 623.6875,548.375 L 637.34375,562.03125 L 647.8125,572.5 L 628.125,629.625 L 608.75,554.375 L 607.1875,548.375 L 601,548.375 L 558,548.375 L 538.6875,548.375 z" id="path4752" style="opacity:1;fill:#000000;fill-opacity:1;stroke:none;stroke-width:16;stroke-linecap:butt;stroke-linejoin:miter;stroke-miterlimit:3;stroke-dasharray:none;stroke-dashoffset:0;stroke-opacity:1"/>
      <path d="M -70.3125,548.375 L -56.65625,562.03125 L -43,575.6875 L -43,767.0625 L -56.65625,780.71875 L -70.3125,794.375 L -51,794.375 L -35,794.375 L 1,794.375 L 46,794.375 L 54,794.375 L 54,786.375 L 54,772.375 L 54,742.375 L 54,710.375 L 38.9375,738.625 L 25.21875,764.375 L 9,764.375 L 9,575.6875 L 22.65625,562.03125 L 36.3125,548.375 L 17,548.375 L 1,548.375 L -35,548.375 L -51,548.375 L -70.3125,548.375 z" id="path4774" style="opacity:1;fill:#000000;fill-opacity:1;stroke:none;stroke-width:6;stroke-linecap:butt;stroke-linejoin:miter;stroke-miterlimit:1.70000005;stroke-dashoffset:0;stroke-opacity:1"/>
      <path d="M 43.6875,548.375 L 57.34375,562.03125 L 71,575.6875 L 71,635.375 L 57,635.375 L 37.6875,635.375 L 51.34375,649.03125 L 65.34375,663.03125 L 67.6875,665.375 L 71,665.375 L 71,767.0625 L 57.34375,780.71875 L 43.6875,794.375 L 63,794.375 L 79,794.375 L 115,794.375 L 164,794.375 L 172,794.375 L 172,786.375 L 172,772.375 L 172,742.375 L 172,710.375 L 156.9375,738.625 L 143.21875,764.375 L 123,764.375 L 123,665.375 L 139,665.375 L 152.25,672.4375 L 164,678.71875 L 164,665.375 L 164,657.375 L 164,643.375 L 164,635.375 L 164,622.03125 L 152.25,628.3125 L 139,635.375 L 123,635.375 L 123,578.375 L 143.21875,578.375 L 156.9375,604.125 L 172,632.375 L 172,600.375 L 172,570.375 L 172,556.375 L 172,548.375 L 164,548.375 L 115,548.375 L 79,548.375 L 63,548.375 L 43.6875,548.375 z" id="path4776" style="opacity:1;fill:#000000;fill-opacity:1;stroke:none;stroke-width:6;stroke-linecap:butt;stroke-linejoin:miter;stroke-miterlimit:1.70000005;stroke-dashoffset:0;stroke-opacity:1"/>
      <path d="M 216.6875,548.375 L 214.34375,550.71875 L 189.34375,575.71875 L 187,578.0625 L 187,581.375 L 187,786.375 L 187,794.375 L 195,794.375 L 231,794.375 L 242,794.375 C 273.9285,794.375 300.00001,768.30352 300,736.375 L 300,659.375 L 300,651.375 L 292,651.375 L 262,651.375 L 248,651.375 L 239,651.375 L 239,578.375 L 264.21875,578.375 L 277.9375,604.125 L 293,632.375 L 293,600.375 L 293,570.375 L 293,556.375 L 293,548.375 L 285,548.375 L 231,548.375 L 230,548.375 L 220,548.375 L 216.6875,548.375 z M 239,661.6875 L 242.34375,665.03125 L 254,676.6875 L 254,752.375 C 253.99999,759.08646 248.71148,764.375 242,764.375 L 239,764.375 L 239,661.6875 z" id="path4778" style="opacity:1;fill:#000000;fill-opacity:1;stroke:none;stroke-width:6;stroke-linecap:butt;stroke-linejoin:miter;stroke-miterlimit:1.70000005;stroke-dasharray:none;stroke-dashoffset:0;stroke-opacity:1"/>
      <path d="M 342.6875,548.375 L 340.34375,550.71875 L 315.34375,575.71875 L 313,578.0625 L 313,581.375 L 313,769.0625 L 301.34375,780.71875 L 287.6875,794.375 L 307,794.375 L 321,794.375 L 357,794.375 L 365,794.375 L 365,786.375 L 365,697.375 L 379,697.375 L 379,786.375 L 379,794.375 L 387,794.375 L 423,794.375 L 437,794.375 L 456.3125,794.375 L 442.65625,780.71875 L 431,769.0625 L 431,581.375 L 431,578.0625 L 428.65625,575.71875 L 403.65625,550.71875 L 401.3125,548.375 L 398,548.375 L 394,548.375 L 357,548.375 L 350,548.375 L 346,548.375 L 342.6875,548.375 z M 365,578.375 L 379,578.375 L 379,667.375 L 365,667.375 L 365,578.375 z" id="path4780" style="opacity:1;fill:#000000;fill-opacity:1;stroke:none;stroke-width:6;stroke-linecap:butt;stroke-linejoin:miter;stroke-miterlimit:1.70000005;stroke-dasharray:none;stroke-dashoffset:0;stroke-opacity:1"/>
      <path d="M 477.6875,548.375 L 475.34375,550.71875 L 450.34375,575.71875 L 448,578.0625 L 448,581.375 L 448,761.375 L 448,764.6875 L 450.34375,767.03125 L 475.34375,792.03125 L 477.6875,794.375 L 481,794.375 L 492,794.375 L 546,794.375 L 554,794.375 L 554,786.375 L 554,772.375 L 554,742.375 L 554,710.375 L 538.9375,738.625 L 525.21875,764.375 L 500,764.375 L 500,578.375 L 525.21875,578.375 L 538.9375,604.125 L 554,632.375 L 554,600.375 L 554,570.375 L 554,556.375 L 554,548.375 L 546,548.375 L 492,548.375 L 481,548.375 L 477.6875,548.375 z" id="path4770" style="opacity:1;fill:#000000;fill-opacity:1;stroke:none;stroke-width:6;stroke-linecap:butt;stroke-linejoin:miter;stroke-miterlimit:1.70000005;stroke-dasharray:none;stroke-dashoffset:0;stroke-opacity:1"/>
    </g>
    <g transform="matrix(0.782747,0,0,0.782747,-15.275605,172.58039)" id="g5414" style="fill:#ffffff">
      <path d="M 551.96875,553.875 L 556.21875,558.15625 L 569.84375,571.78125 L 603.5,681.6875 L 603.5,771.3125 L 590.21875,784.59375 L 585.96875,788.875 L 592,788.875 L 656,788.875 L 662.03125,788.875 L 657.78125,784.59375 L 644.5,771.3125 L 644.5,681.8125 L 687.375,557.1875 L 688.5,553.875 L 685,553.875 L 643,553.875 L 636.96875,553.875 L 641.21875,558.15625 L 654.125,571.0625 L 627.34375,648.71875 L 603.40625,555.75 L 602.9375,553.875 L 601,553.875 L 558,553.875 L 551.96875,553.875 z" id="rect3519" style="opacity:1;fill:#ffffff;fill-opacity:1;stroke:none;stroke-width:5;stroke-linecap:butt;stroke-linejoin:miter;stroke-miterlimit:2.9000001;stroke-dasharray:none;stroke-dashoffset:0;stroke-opacity:1"/>
      <path d="M -57.03125,553.875 L -52.78125,558.15625 L -37.5,573.4375 L -37.5,769.3125 L -52.78125,784.59375 L -57.03125,788.875 L -51,788.875 L -35,788.875 L 1,788.875 L 46,788.875 L 48.5,788.875 L 48.5,786.375 L 48.5,772.375 L 48.5,742.375 L 48.5,732.375 L 43.78125,741.1875 L 28.46875,769.875 L 3.5,769.875 L 3.5,573.4375 L 18.78125,558.15625 L 23.03125,553.875 L 17,553.875 L 1,553.875 L -35,553.875 L -51,553.875 L -57.03125,553.875 z" id="rect3427" style="opacity:1;fill:#ffffff;fill-opacity:1;stroke:none;stroke-width:5;stroke-linecap:butt;stroke-linejoin:miter;stroke-miterlimit:10;stroke-dasharray:none;stroke-dashoffset:0;stroke-opacity:1"/>
      <path d="M 56.96875,553.875 L 61.21875,558.15625 L 76.5,573.4375 L 76.5,640.875 L 71,640.875 L 57,640.875 L 50.96875,640.875 L 55.21875,645.15625 L 69.21875,659.15625 L 69.96875,659.875 L 71,659.875 L 76.5,659.875 L 76.5,769.3125 L 61.21875,784.59375 L 56.96875,788.875 L 63,788.875 L 79,788.875 L 115,788.875 L 164,788.875 L 166.5,788.875 L 166.5,786.375 L 166.5,772.375 L 166.5,742.375 L 166.5,732.375 L 161.78125,741.1875 L 146.46875,769.875 L 117.5,769.875 L 117.5,659.875 L 140.34375,659.875 L 154.8125,667.59375 L 158.5,669.53125 L 158.5,665.375 L 158.5,657.375 L 158.5,643.375 L 158.5,635.375 L 158.5,631.21875 L 154.8125,633.15625 L 140.34375,640.875 L 117.5,640.875 L 117.5,572.875 L 146.46875,572.875 L 161.78125,601.5625 L 166.5,610.375 L 166.5,600.375 L 166.5,570.375 L 166.5,556.375 L 166.5,553.875 L 164,553.875 L 115,553.875 L 79,553.875 L 63,553.875 L 56.96875,553.875 z" id="path3441" style="opacity:1;fill:#ffffff;fill-opacity:1;stroke:none;stroke-width:5;stroke-linecap:butt;stroke-linejoin:miter;stroke-miterlimit:10;stroke-dasharray:none;stroke-dashoffset:0;stroke-opacity:1"/>
      <path d="M 218.96875,553.875 L 218.21875,554.59375 L 193.21875,579.59375 L 192.5,580.34375 L 192.5,581.375 L 192.5,786.375 L 192.5,788.875 L 195,788.875 L 231,788.875 L 242,788.875 C 270.95266,788.875 294.50001,765.32768 294.5,736.375 L 294.5,659.375 L 294.5,656.875 L 292,656.875 L 262,656.875 L 248,656.875 L 241.96875,656.875 L 246.21875,661.15625 L 259.5,674.4375 L 259.5,752.375 C 259.49999,762.06231 251.68734,769.875 242,769.875 L 233.5,769.875 L 233.5,572.875 L 267.46875,572.875 L 282.78125,601.5625 L 287.5,610.375 L 287.5,600.375 L 287.5,570.375 L 287.5,556.375 L 287.5,553.875 L 285,553.875 L 231,553.875 L 230,553.875 L 220,553.875 L 218.96875,553.875 z" id="rect3467" style="opacity:1;fill:#ffffff;fill-opacity:1;stroke:none;stroke-width:5;stroke-linecap:butt;stroke-linejoin:miter;stroke-miterlimit:10;stroke-dasharray:none;stroke-dashoffset:0;stroke-opacity:1"/>
      <path d="M 344.96875,553.875 L 344.21875,554.59375 L 319.21875,579.59375 L 318.5,580.34375 L 318.5,581.375 L 318.5,771.3125 L 305.21875,784.59375 L 300.96875,788.875 L 307,788.875 L 321,788.875 L 357,788.875 L 359.5,788.875 L 359.5,786.375 L 359.5,691.875 L 384.5,691.875 L 384.5,786.375 L 384.5,788.875 L 387,788.875 L 423,788.875 L 437,788.875 L 443.03125,788.875 L 438.78125,784.59375 L 425.5,771.3125 L 425.5,581.375 L 425.5,580.34375 L 424.78125,579.59375 L 399.78125,554.59375 L 399.03125,553.875 L 398,553.875 L 394,553.875 L 357,553.875 L 350,553.875 L 346,553.875 L 344.96875,553.875 z M 359.5,572.875 L 384.5,572.875 L 384.5,672.875 L 359.5,672.875 L 359.5,572.875 z" id="path3492" style="opacity:1;fill:#ffffff;fill-opacity:1;stroke:none;stroke-width:5;stroke-linecap:butt;stroke-linejoin:miter;stroke-miterlimit:10;stroke-dasharray:none;stroke-dashoffset:0;stroke-opacity:1"/>
      <path d="M 479.96875,553.875 L 479.21875,554.59375 L 454.21875,579.59375 L 453.5,580.34375 L 453.5,581.375 L 453.5,761.375 L 453.5,762.40625 L 454.21875,763.15625 L 479.21875,788.15625 L 479.96875,788.875 L 481,788.875 L 492,788.875 L 546,788.875 L 548.5,788.875 L 548.5,786.375 L 548.5,772.375 L 548.5,742.375 L 548.5,732.375 L 543.78125,741.1875 L 528.46875,769.875 L 494.5,769.875 L 494.5,572.875 L 528.46875,572.875 L 543.78125,601.5625 L 548.5,610.375 L 548.5,600.375 L 548.5,570.375 L 548.5,556.375 L 548.5,553.875 L 546,553.875 L 492,553.875 L 481,553.875 L 479.96875,553.875 z" id="path3498" style="opacity:1;fill:#ffffff;fill-opacity:1;stroke:none;stroke-width:5;stroke-linecap:butt;stroke-linejoin:miter;stroke-miterlimit:10;stroke-dasharray:none;stroke-dashoffset:0;stroke-opacity:1"/>
    </g>
    <g transform="matrix(0.782747,0,0,0.782747,-15.275605,172.58039)" id="g5428" style="fill:#000000">
      <g id="g5436" style="fill:#000000">
        <path d="M 558,556.375 L 572,570.375 L 606,681.375 L 606,772.375 L 592,786.375 L 656,786.375 L 642,772.375 L 642,681.375 L 685,556.375 L 643,556.375 L 657,570.375 L 627,657.375 L 601,556.375 L 558,556.375 z" id="path4761" style="opacity:1;fill:#000000;fill-opacity:1;stroke:none;stroke-width:5;stroke-linecap:butt;stroke-linejoin:miter;stroke-miterlimit:2.9000001;stroke-dasharray:none;stroke-dashoffset:0;stroke-opacity:1"/>
        <path d="M -51,556.375 L -35,572.375 L -35,770.375 L -51,786.375 L -35,786.375 L 1,786.375 L 46,786.375 L 46,772.375 L 46,742.375 L 30,772.375 L 1,772.375 L 1,572.375 L 17,556.375 L 1,556.375 L -35,556.375 L -51,556.375 z" id="path4825" style="opacity:1;fill:#000000;fill-opacity:1;stroke:none;stroke-width:6;stroke-linecap:butt;stroke-linejoin:miter;stroke-miterlimit:1.70000005;stroke-dashoffset:0;stroke-opacity:1"/>
        <path d="M 63,556.375 L 79,572.375 L 79,643.375 L 71,643.375 L 57,643.375 L 71,657.375 L 79,657.375 L 79,770.375 L 63,786.375 L 79,786.375 L 115,786.375 L 164,786.375 L 164,772.375 L 164,742.375 L 148,772.375 L 115,772.375 L 115,657.375 L 141,657.375 L 156,665.375 L 156,657.375 L 156,643.375 L 156,635.375 L 141,643.375 L 115,643.375 L 115,570.375 L 148,570.375 L 164,600.375 L 164,570.375 L 164,556.375 L 115,556.375 L 79,556.375 L 63,556.375 z" id="path4827" style="opacity:1;fill:#000000;fill-opacity:1;stroke:none;stroke-width:6;stroke-linecap:butt;stroke-linejoin:miter;stroke-miterlimit:1.70000005;stroke-dashoffset:0;stroke-opacity:1"/>
        <path d="M 220,556.375 L 195,581.375 L 195,786.375 L 231,786.375 L 242,786.375 C 269.6,786.375 292.00001,763.97502 292,736.375 L 292,659.375 L 262,659.375 L 248,659.375 L 262,673.375 L 262,752.375 C 261.99999,763.41497 253.04,772.375 242,772.375 L 231,772.375 L 231,570.375 L 269,570.375 L 285,600.375 L 285,570.375 L 285,556.375 L 231,556.375 L 230,556.375 L 220,556.375 z" id="path4829" style="opacity:1;fill:#000000;fill-opacity:1;stroke:none;stroke-width:6;stroke-linecap:butt;stroke-linejoin:miter;stroke-miterlimit:1.70000005;stroke-dasharray:none;stroke-dashoffset:0;stroke-opacity:1"/>
        <path d="M 346,556.375 L 321,581.375 L 321,772.375 L 307,786.375 L 321,786.375 L 357,786.375 L 357,689.375 L 387,689.375 L 387,786.375 L 423,786.375 L 437,786.375 L 423,772.375 L 423,581.375 L 398,556.375 L 394,556.375 L 357,556.375 L 350,556.375 L 346,556.375 z M 357,570.375 L 387,570.375 L 387,675.375 L 357,675.375 L 357,570.375 z" id="path4831" style="opacity:1;fill:#000000;fill-opacity:1;stroke:none;stroke-width:6;stroke-linecap:butt;stroke-linejoin:miter;stroke-miterlimit:1.70000005;stroke-dasharray:none;stroke-dashoffset:0;stroke-opacity:1"/>
        <path d="M 481,556.375 L 456,581.375 L 456,761.375 L 481,786.375 L 492,786.375 L 546,786.375 L 546,772.375 L 546,742.375 L 530,772.375 L 492,772.375 L 492,570.375 L 530,570.375 L 546,600.375 L 546,570.375 L 546,556.375 L 492,556.375 L 481,556.375 z" id="path4833" style="opacity:1;fill:#000000;fill-opacity:1;stroke:none;stroke-width:6;stroke-linecap:butt;stroke-linejoin:miter;stroke-miterlimit:1.70000005;stroke-dasharray:none;stroke-dashoffset:0;stroke-opacity:1"/>
      </g>
    </g>
  </g>
</svg>